<svg xmlns="http://www.w3.org/2000/svg" viewBox="0 0 640 500" role="img" aria-labelledby="title desc">
  <title id="title">Proxy path diagram</title>
  <desc id="desc">A browser panel connected through a proxy node to several web targets.</desc>
  <rect width="640" height="500" fill="#fbfcfd"/>
  <path d="M74 98h222v150H74z" fill="#fff" stroke="#d8dde4" stroke-width="4" rx="8"/>
  <path d="M74 98h222v34H74z" fill="#eef3f6" stroke="#d8dde4" stroke-width="4" rx="8"/>
  <circle cx="96" cy="116" r="6" fill="#b33d32"/>
  <circle cx="116" cy="116" r="6" fill="#b86b00"/>
  <circle cx="136" cy="116" r="6" fill="#157a74"/>
  <rect x="98" y="158" width="174" height="18" fill="#315fbc" opacity=".18" rx="4"/>
  <rect x="98" y="192" width="118" height="16" fill="#157a74" opacity=".22" rx="4"/>
  <rect x="98" y="220" width="148" height="16" fill="#b86b00" opacity=".2" rx="4"/>
  <path d="M298 174h76" fill="none" stroke="#59616d" stroke-width="4" stroke-linecap="round"/>
  <path d="M360 158l18 16-18 16" fill="none" stroke="#59616d" stroke-width="4" stroke-linecap="round" stroke-linejoin="round"/>
  <rect x="382" y="124" width="118" height="100" fill="#fff" stroke="#157a74" stroke-width="4" rx="8"/>
  <path d="M412 172h58" stroke="#157a74" stroke-width="8" stroke-linecap="round"/>
  <path d="M441 142v60" stroke="#315fbc" stroke-width="8" stroke-linecap="round"/>
  <path d="M500 172c46-54 82-54 112 0" fill="none" stroke="#59616d" stroke-width="4" stroke-linecap="round"/>
  <path d="M500 172c48 58 84 60 112 6" fill="none" stroke="#59616d" stroke-width="4" stroke-linecap="round"/>
  <circle cx="570" cy="94" r="34" fill="#fff" stroke="#315fbc" stroke-width="4"/>
  <path d="M552 94h36M570 76c10 12 10 24 0 36M570 76c-10 12-10 24 0 36" fill="none" stroke="#315fbc" stroke-width="3" stroke-linecap="round"/>
  <circle cx="570" cy="246" r="34" fill="#fff" stroke="#b86b00" stroke-width="4"/>
  <path d="M550 258h40M556 236h28l8 22" fill="none" stroke="#b86b00" stroke-width="4" stroke-linecap="round" stroke-linejoin="round"/>
  <path d="M130 332h380" stroke="#d8dde4" stroke-width="4" stroke-linecap="round" stroke-dasharray="6 16"/>
  <rect x="166" y="306" width="114" height="52" fill="#fff" stroke="#d8dde4" stroke-width="4" rx="8"/>
  <rect x="336" y="306" width="114" height="52" fill="#fff" stroke="#d8dde4" stroke-width="4" rx="8"/>
  <path d="M194 333h58M364 333h58" stroke="#157a74" stroke-width="6" stroke-linecap="round"/>
  <path d="M320 394c-64 0-112 20-144 60M320 394c64 0 112 20 144 60" fill="none" stroke="#d8dde4" stroke-width="4" stroke-linecap="round"/>
</svg>
